# xmcd CD database file
#
# Track frame offsets:
#	150
#	14318
#	28536
#	42398
#	56781
#	70183
#	84463
#	98620
#	112184
#	127075
#	141646
#	156018
#	169544
#	184737
#	197093
#	212014
#	226417
#	240808
#	253443
#	267411
#
# Disc length: 3747 seconds
#
# Revision: 2
# Processed by: cddbd v1.5.2PL0 Copyright (c) Steve Scherf et al.
# Submitted via: CDex 1.51
#
DISCID=200ea114
DTITLE=Ella Fitzgerald - Everyone's Wrong But Me  [CD 05-10]
DYEAR=1900
DGENRE=Jazz
TTITLE0=If Anything Happened To You
TTITLE1=If That's What You're Thinking, You're Wrong
TTITLE2=If You Ever Change Your Mind
TTITLE3=Have Mercy
TTITLE4=Little White Lies
TTITLE5=Coochi-Coochi-Coo
TTITLE6=That Was My Heart
TTITLE7=Betcha Nickel
TTITLE8=Stairway To The Stars
TTITLE9=I Want The Waiter  (With The Water)
TTITLE10=That's All, Brother
TTITLE11=Out Of Nowhere
TTITLE12=My Last Goodbye
TTITLE13=Billy  (I Always Dream Of Billy)
TTITLE14=Please Tell Me The Truth
TTITLE15=I'm Not Complainin'
TTITLE16=You're Gonna Lose Your Gal
TTITLE17=After I Say I'm Sorry
TTITLE18=Baby, What Else Can I Do ¿
TTITLE19=My Wubba Dolly  (Rubber Dolly)
EXTD=
EXTT0=
EXTT1=
EXTT2=
EXTT3=
EXTT4=
EXTT5=
EXTT6=
EXTT7=
EXTT8=
EXTT9=
EXTT10=
EXTT11=
EXTT12=
EXTT13=
EXTT14=
EXTT15=
EXTT16=
EXTT17=
EXTT18=
EXTT19=
PLAYORDER=
